# xmcd
#
# Track frame offsets:
#	150
#	24474
#	46657
#	76945
#	98985
#	125219
#	145887
#	165085
#	177674
#	203739
#	221471
#	243060
#	275174
#
# Disc length: 4471 seconds
#
# Revision: 13
# Processed by: cddbd v1.5.2PL0 Copyright (c) Steve Scherf et al.
# Submitted via: audiograbber 1.83.01
#
DISCID=b011750d
DTITLE=Nazareth - Loud and Proud! - The Box Set [CD 24) - The Newz [remastered 20
DTITLE=18]
DYEAR=2008
DGENRE=Hard Rock
TTITLE0=Goin' Loco
TTITLE1=Day At The Beach
TTITLE2=Liar
TTITLE3=See Me
TTITLE4=Enough Love
TTITLE5=Warning
TTITLE6=Mean Streets
TTITLE7=Road Trip
TTITLE8=Gloria
TTITLE9=Keep On Travellin'
TTITLE10=Loggin' On
TTITLE11=The Gathering
TTITLE12=Dying Breed - The Goblin King [hidden track featuring Rammstein]
EXTD=
EXTT0=
EXTT1=
EXTT2=
EXTT3=
EXTT4=
EXTT5=
EXTT6=
EXTT7=
EXTT8=
EXTT9=
EXTT10=
EXTT11=
EXTT12=
PLAYORDER=
